<?xml version="1.0" encoding="utf-8"?>
<!-- Generator: Adobe Illustrator 24.1.3, SVG Export Plug-In . SVG Version: 6.00 Build 0)  -->
<svg version="1.1" id="Ebene_5" xmlns="http://www.w3.org/2000/svg" xmlns:xlink="http://www.w3.org/1999/xlink" x="0px" y="0px"
	 width="344.2px" height="80px" viewBox="0 0 344.2 80" style="enable-background:new 0 0 344.2 80;" xml:space="preserve">
<style type="text/css">
	.st0{fill-rule:evenodd;clip-rule:evenodd;fill:#85CC62;}
	.st1{fill-rule:evenodd;clip-rule:evenodd;fill:#949393;}
	.st2{fill:#24211D;}
	.st3{fill-rule:evenodd;clip-rule:evenodd;fill:#24211D;}
</style>
<path class="st0" d="M335.4,28.2L335.4,28.2L335.4,28.2L335.4,28.2z M341.9,20.5L341.9,20.5L341.9,20.5L341.9,20.5z M286.5,40
	c-1.2,4.1,0-1.8,4.7,1.2c2.9,1.8,4.7,11.8,9.4,11.8c5.3,0,5.3,1.2,8.3,7.1l4.7,11.2c4.7,10.6,1.2,2.4,0.6-5.3
	c-0.6-2.4,0.6-4.1,1.8-5.3c2.4-3.5,10,0.6,13.6,2.9l-7.1-5.3l-10-6.5c-10-6.5-0.6-10.6,5.9-12.4c2.4-0.6,4.7-1.2,4.7-2.4
	c1.2,0,2.4,0,2.9-0.6c0,0,0.6,0,1.2-0.6c0,0-0.6,0-1.2,0c1.2,0,1.2-0.6,1.8-0.6c0.6-0.6,2.9-1.8,2.9-1.8c0.6-0.6,0-0.6-0.6-0.6
	c0.6-0.6,1.8-0.6,2.4-1.2c0.6,0,1.2,0,1.2-0.6c0.6-0.6-1.2,0-1.2,0c0.6-1.2,2.4-1.2,3.5-1.8c0,0,1.8-1.2,1.2-1.2c-0.6,0-1.2,0-1.2,0
	h-0.6c0.6-0.6,1.8-1.2,2.9-1.8c0,0,0-0.6,0.6-0.6c0-0.6-0.6-0.6-1.2-0.6c0.6,0,1.2-0.6,1.8-0.6c1.2-1.2,5.9-3.5,1.8-2.9
	c0.6,0,0.6,0,1.2,0c0.6-0.6,1.8-1.2,1.8-2.4c0-0.6-1.2,0.6-1.2,0.6c-0.6,0-0.6,0-0.6,0c-0.6,0.6-0.6,0.6-0.6,0.6
	c0.6-0.6,2.4-4.1,1.2-2.9c-4.7,4.7-12.4,5.9-18.9,9.4c-3.5,2.4-11.8,1.8-14.1,2.4c-2.4,0.6-7.1,5.9-8.8,5.9c1.2-1.8,1.2-4.7,1.2-7.1
	c0-1.8,0.6-2.4,0-3.5c-0.6-0.6-0.6-1.8-1.2-2.4c0.6-0.6,0.6-1.2,0.6-1.8c0-0.6,0-1.2,0-1.8c-0.6,0-1.2,0.6-1.2,0.6
	c0-0.6,0-2.4,0-2.9c0-0.6,0-1.2-0.6-0.6c-0.6,0-0.6,0-1.2,0c0-2.4,1.2-5.9-1.2-5.9c-1.2-0.6,0.6-6.5-1.8-5.3c0-0.6,1.2-3.5,0.6-3.5
	c-0.6-0.6-1.8,0-2.4,1.8c0.6-5.9-2.9-1.2-3.5,0.6c-0.6,2.4-1.8,4.1-1.8,6.5c-1.2,6.5,0,12.4,0.6,14.7c1.2,2.9,2.4,10,1.2,10
	c-2.4,0-3.5,0-4.1,1.8C286.5,37,287.1,39.4,286.5,40L286.5,40z"/>
<rect x="10.6" y="67" class="st1" width="12.4" height="2.4"/>
<rect x="193.9" y="45.3" class="st1" width="2.4" height="34.1"/>
<path class="st2" d="M36,54.1h3.5v11.8c0,5.3,0.6,10.6,7.7,10.6s7.7-5.3,7.7-10.6V54.1h3.5c0,9.4,2.9,25.9-11.2,25.9
	S36,63.5,36,54.1L36,54.1z M64.2,54.1h2.9v3.5c2.4-2.9,5.9-5.3,9.4-3.5L75.4,57c-9.4-4.1-8.3,17.1-8.3,22.4h-2.9V54.1z M100.8,71.2
	l2.9,1.2C96.7,85.9,76,79.4,79,64.1h2.9l0,0h18.9c-1.8-8.2-13-10.6-17.1-2.9h-4.1c4.1-8.8,15.9-10.6,22.4-2.9
	c1.8,2.4,2.4,5.3,2.4,8.8H81.9c0,7.1,6.5,11.8,13,9.4C97.8,75.3,99.6,73.5,100.8,71.2L100.8,71.2z"/>
<polygon class="st3" points="17.1,44.7 33.6,79.4 29.5,79.4 17.1,52.9 4.1,79.4 0,79.4 "/>
<path class="st2" d="M110.2,44.7h2.9v34.7h-2.9V44.7z M121.4,43.5c0.6,0,1.2,0.6,1.8,1.2c0.6,0.6,0.6,1.2,0.6,1.8
	c0,0.6,0,1.2-0.6,1.8c-0.6,0.6-1.2,0.6-1.8,0.6c-1.2,0-1.8,0-2.4-0.6c0-0.6-0.6-1.2-0.6-1.8c0-0.6,0.6-1.2,0.6-1.8
	C119.7,44.1,120.2,43.5,121.4,43.5L121.4,43.5z M119.7,54.1h2.9v25.3h-2.9V54.1z M129.1,54.1h3.5v11.8c0,2.9,0,4.7,0,5.9
	c0.6,1.8,1.8,2.9,2.9,3.5c1.2,1.2,2.9,1.2,4.7,1.2s3.5,0,4.7-1.2c1.2-0.6,1.8-1.8,2.4-3.5c0.6-0.6,0.6-2.9,0.6-5.9V54.1h3.5v12.4
	c0,3.5-0.6,5.9-1.2,7.7c-1.2,1.8-2.4,3.5-4.1,4.1c-1.2,1.2-3.5,1.8-5.9,1.8s-4.7-0.6-6.5-1.8c-1.2-0.6-2.4-2.4-3.5-4.1
	c-0.6-1.8-1.2-4.1-1.2-7.7V54.1z M170.9,57l-1.8,1.8c-1.8-1.8-3.5-2.4-5.3-2.4c-1.2,0-1.8,0.6-2.4,1.2c-1.2,0.6-1.2,1.2-1.2,2.4
	c0,0.6,0,1.8,0.6,2.4c0.6,0.6,2.4,1.8,4.1,2.4c2.4,1.8,4.1,2.9,4.7,4.1c1.2,1.2,1.2,2.4,1.2,3.5c0,2.4-0.6,4.1-1.8,5.3
	c-1.8,1.8-3.5,2.4-5.9,2.4c-1.2,0-2.4-0.6-4.1-1.2c-1.2-0.6-2.4-1.2-2.9-2.4l1.8-2.4c1.8,1.8,3.5,2.9,5.3,2.9c1.2,0,2.4-0.6,3.5-1.8
	c0.6-0.6,1.2-1.8,1.2-2.9c0-0.6,0-1.8-0.6-2.4s-2.4-1.2-4.1-2.4c-2.4-1.2-4.1-2.4-4.7-3.5c-1.2-1.2-1.2-2.4-1.2-4.1
	c0-1.8,0.6-3.5,1.8-4.7c1.2-1.2,2.9-1.8,4.7-1.8C166.2,53.5,168.6,54.7,170.9,57L170.9,57z"/>
<path class="st2" d="M197.5,45.3c4.7,0,10-0.6,13,4.1c2.4,4.1,1.2,8.8-2.9,11.2c11.2,4.1,8.3,18.8-4.1,18.8h-5.9v-3.5
	c4.7,0,13.6,0.6,13.6-6.5s-8.8-6.5-13.6-6.5v-3.5c4.1,0,10.6,0,10.6-5.9s-6.5-4.7-10.6-4.7V45.3z"/>
<path class="st2" d="M221.6,42.9c0.6,0,1.2,0.6,1.8,1.2c0.6,0.6,0.6,1.2,0.6,1.8s0,1.2-0.6,1.8c-0.6,0.6-1.2,0.6-1.8,0.6
	c-1.2,0-1.8,0-1.8-0.6c-0.6-0.6-1.2-1.2-1.2-1.8s0.6-1.2,1.2-1.8C219.9,43.5,220.4,42.9,221.6,42.9L221.6,42.9z M219.9,53.5h3.5
	v25.3h-3.5V53.5z"/>
<path class="st2" d="M228.7,53.5h2.9V57c1.2-1.2,2.4-2.4,3.5-2.9c1.2-1.2,2.4-1.2,3.5-1.2c0.6,0,1.8,0,2.4,0.6l-1.2,2.9
	c-1.2-0.6-1.8-0.6-1.8-0.6c-1.2,0-2.4,0.6-3.5,1.2c-0.6,1.2-1.8,2.4-2.4,4.1c0,1.8-0.6,4.7-0.6,8.8v8.8h-2.9V53.5z"/>
<path class="st2" d="M263.5,77.1c-2.4,1.2-4.7,2.4-7.7,2.4c-3.5,0-6.5-1.8-8.8-4.1c-2.9-2.4-4.1-5.9-4.1-9.4c0-3.5,1.8-6.5,4.1-9.4
	c2.4-2.4,5.3-3.5,8.8-3.5c2.4,0,4.1,0.6,5.9,1.2c1.8,1.2,2.9,2.4,4.7,4.1V43.5h2.9v35.3h-2.9v-4.7l-1.8-2.4c1.2-1.8,1.8-3.5,1.8-5.9
	c0-2.4-1.2-5.3-2.9-7.1c-1.8-1.8-4.1-2.9-7.1-2.9c-1.8,0-3.5,0.6-5.3,1.2c-1.2,1.2-2.4,2.4-3.5,4.1c-0.6,1.2-1.2,2.9-1.2,4.7
	c0,1.8,0.6,3.5,1.2,5.3c1.2,1.8,2.4,2.9,3.5,3.5c1.8,1.2,3.5,1.8,5.3,1.8c2.4,0,3.5-0.6,5.9-1.8L263.5,77.1z"/>
</svg>
